Coordinates
version=1
nRows=10
nColumns=33
inDegrees=yes

Units are S.I. units (second, meters, Newtons, ...)
Angles are in degrees.

endheader
time	ground_thorax_rot_x	ground_thorax_rot_y	ground_thorax_rot_z	ground_thorax_tx	ground_thorax_ty	ground_thorax_tz	clav_prot_r	clav_elev_r	scapula_abduction_r	scapula_elevation_r	scapula_upward_rot_r	scapula_winging_r	shoulder_elv_r	plane_of_elev_r	axial_rot_r	elbow_flexion_r	pro_sup_r	wrist_flex_r	wrist_dev_r	clav_prot_l	clav_elev_l	scapula_abduction_l	scapula_elevation_l	scapula_upward_rot_l	scapula_winging_l	shoulder_elv_l	plane_of_elev_l	axial_rot_l	elbow_flexion_l	pro_sup_l	wrist_flex_l	wrist_dev_l
      8.62000000	     39.39509310	     11.41316031	     14.39257867	   -243.96574865	    848.49463773	      6.73616219	     12.41658877	     38.89376097	     38.09379927	     45.00000000	    -33.67514423	   2788.61214919	  -3531.55648631	     33.28560785	     51.78093820	   1453.89226696	     30.45557314	     18.98679574	      3.09964392	      8.05509387	    -45.00000000	    -36.15541723	     45.00000000	    -45.00000000	  -1339.96281165	  -2083.22594924	     21.21437860	    -53.97937340	    370.41362242	     -1.15963200	      5.50055612	    -19.82698493
      8.63000000	     39.31537991	     11.55996910	     14.56799914	   -243.83706055	    848.15379427	      6.77990548	     12.44985099	     38.89407564	     37.95916862	     45.00000000	    -33.93129499	   2788.76148730	  -3531.50285200	     33.32019332	     51.60344519	   1453.84255530	     30.78302507	     19.24822616	      3.11370042	      8.05780098	    -45.00000000	    -36.21803228	     45.00000000	    -45.00000000	  -1339.87981833	  -2083.18771399	     21.24792008	    -54.06816769	    370.55144378	      0.12309574	      5.29348028	    -19.60719544
      8.64000000	     39.33659730	     11.47217207	     14.55252000	   -243.65538311	    847.80607783	      6.81850497	     12.44154115	     38.80527887	     38.07571972	     45.00000000	    -33.97882149	   2788.73384473	  -3531.54579070	     33.34251609	     51.37707278	   1453.91499718	     30.99723764	     19.01569755	      3.08401497	      8.09324292	    -45.00000000	    -36.14508510	     45.00000000	    -45.00000000	  -1339.92902937	  -2083.25699674	     21.28075808	    -53.87986412	    370.55424987	      1.29145999	      5.07324310	    -19.80605972
      8.65000000	     39.27825570	     11.64918083	     14.74602639	   -243.41963660	    847.45276992	      6.85380926	     12.51589461	     38.89487477	     37.95743523	     45.00000000	    -34.04978150	   2788.86116981	  -3531.51793032	     33.33459063	     51.34059874	   1453.83817837	     31.19462494	     19.20693888	      3.13124666	      8.02759745	    -45.00000000	    -36.20870271	     45.00000000	    -45.00000000	  -1339.92199980	  -2083.20680326	     21.24326835	    -53.66079777	    370.55543953	      2.29552551	      4.98639692	    -19.67470401
      8.66000000	     39.32146138	     11.49188905	     14.59242145	   -243.13428371	    847.10218626	      6.88586975	     12.45553774	     38.75688183	     38.12398309	     45.00000000	    -33.95770230	   2788.75041146	  -3531.61254493	     33.35908838	     51.14896715	   1453.95386682	     31.30495844	     18.98233252	      3.02351568	      8.13162122	    -45.00000000	    -36.10097461	     45.00000000	    -45.00000000	  -1339.98404262	  -2083.31916923	     21.39332404	    -53.56030574	    370.63780685	      3.25049000	      4.81636786	    -19.80812909
      8.67000000	     39.26802624	     11.67717263	     14.70926142	   -242.79911258	    846.75327231	      6.91622479	     12.54276522	     38.90481865	     37.96952939	     45.00000000	    -33.98569270	   2788.86205965	  -3531.54752581	     33.37163722	     51.19528319	   1453.99262549	     31.48323412	     19.16401329	      3.08819076	      8.02313043	    -45.00000000	    -36.19441269	     45.00000000	    -45.00000000	  -1340.01976174	  -2083.28882268	     21.32849423	    -53.29948419	    370.78948535	      4.17614145	      4.71096881	    -19.76934133
      8.68000000	     39.28776483	     11.67606933	     14.65411172	   -242.42266722	    846.41008423	      6.94640373	     12.41563018	     38.79426063	     37.93727128	     45.00000000	    -33.79916093	   2788.90969593	  -3531.58655523	     33.37341134	     51.02354919	   1453.99072408	     31.61620221	     18.98995454	      2.97914473	      8.14101882	    -45.00000000	    -36.17850604	     45.00000000	    -45.00000000	  -1340.05251575	  -2083.35992744	     21.43208515	    -53.16674318	    370.78465092	      5.01270967	      4.58843378	    -19.81762439
      8.69000000	     39.27052350	     11.80137518	     14.70029976	   -242.01021964	    846.07161262	      6.97803137	     12.41281710	     38.88577640	     37.87589433	     45.00000000	    -33.75675859	   2788.96422145	  -3531.54987176	     33.38316531	     50.99679644	   1454.02591440	     31.80124873	     19.08563250	      3.02396267	      8.11852053	    -45.00000000	    -36.24897289	     45.00000000	    -45.00000000	  -1340.09544461	  -2083.35480412	     21.42169597	    -52.92134261	    370.89612184	      5.78597451	      4.49073418	    -19.81791216
      8.70000000	     39.27059260	     11.86562721	     14.67972067	   -241.56442713	    845.73475869	      7.01247021	     12.35775744	     38.83631675	     37.76599769	     45.00000000	    -33.59098391	   2789.04571942	  -3531.54453503	     33.41933898	     50.85523966	   1454.02979284	     31.94191971	     18.98984171	      2.95446507	      8.17062021	    -45.00000000	    -36.30252123	     45.00000000	    -45.00000000	  -1340.14029603	  -2083.37437182	     21.48034399	    -52.74721113	    370.90925843	      6.46061853	      4.41420627	    -19.84477628
      8.71000000	     39.26373407	     11.95507850	     14.70275180	   -241.08223261	    845.39577648	      7.05009848	     12.31695444	     38.89280106	     37.75874513	     45.00000000	    -33.52133060	   2789.09035081	  -3531.55316515	     33.41925262	     50.75638309	   1454.04948070	     32.07850563	     19.05257334	      3.01053086	      8.18515210	    -45.00000000	    -36.34434590	     45.00000000	    -45.00000000	  -1340.18923242	  -2083.39658948	     21.49577903	    -52.50537159	    370.95724407	      7.05711834	      4.34424875	    -19.85204696
